<svg id="Layer_1" viewBox="0 0 512 512" xmlns="http://www.w3.org/2000/svg" data-name="Layer 1"><path d="m359.14 363.171q.284-2.343.472-4.642.282-3.87.287-8.047a103.9 103.9 0 1 0 -207.8 0q0 4.18.288 8.047.184 2.3.472 4.642a180.124 180.124 0 0 0 206.279 0zm16.4-3.463q-.36 4.777-1.042 9.185h-.009a7.965 7.965 0 0 1 -3.208 5.245 196.261 196.261 0 0 1 -230.219.255 7.968 7.968 0 0 1 -3.561-5.5q-.68-4.416-1.042-9.185c-.241-3.117-.359-6.2-.359-9.226a120.013 120.013 0 0 1 84.3-114.527 72.344 72.344 0 1 1 71.2 0 120.013 120.013 0 0 1 84.3 114.527c0 3.028-.118 6.109-.359 9.226zm-79.647-226.718a56.429 56.429 0 1 0 16.519 39.893 56.25 56.25 0 0 0 -16.519-39.893zm-39.893-132.99a256 256 0 1 1 -181.019 74.984 255.193 255.193 0 0 1 181.019-74.984z" fill="#fc0005" fill-rule="evenodd"/></svg>