<svg clip-rule="evenodd" fill-rule="evenodd" image-rendering="optimizeQuality" shape-rendering="geometricPrecision" text-rendering="geometricPrecision" viewBox="0 0 21.0001 21.0001" xmlns="http://www.w3.org/2000/svg"><g id="&#x56FE;&#x5C42;_x0020_1"><path d="m0 0h21v21h-21z" fill="none"/><g id="_206484448" fill="#ff1f1f"><path id="_207036664" d="m19.6823 7.88085v9.83271c0 1.08429-.88439 1.96868-1.96868 1.96868h-14.4272c-1.08429-.00008-1.9686-.88439-1.9686-1.96868v-9.82876h4.81897 2.9202 2.64186 2.31415 5.56206c.03627 0 .07201-.0014.10727-.00395h-.00002zm-13.7351 2.91725h1.18126c.21664 0 .39375.17711.39375.39375v1.18126c0 .21664-.17711.39375-.39375.39375h-1.18126c-.21664 0-.39375-.17711-.39375-.39375v-1.18126c0-.21664.17711-.39375.39375-.39375zm3.96217 0h1.18126c.21664 0 .39375.17711.39375.39375v1.18126c0 .21664-.17711.39375-.39375.39375h-1.18126c-.21664 0-.39375-.17711-.39375-.39375v-1.18126c0-.21664.17711-.39375.39375-.39375zm3.96217 0h1.18126c.21664 0 .39375.17711.39375.39375v1.18126c0 .21664-.17711.39375-.39375.39375h-1.18126c-.21664 0-.39375-.17711-.39375-.39375v-1.18126c0-.21664.17711-.39375.39375-.39375zm-7.92434 3.99814h1.18126c.21664 0 .39375.17711.39375.39375v1.18126c0 .21664-.17711.39375-.39375.39375h-1.18126c-.21664 0-.39375-.17711-.39375-.39375v-1.18126c0-.21664.17711-.39375.39375-.39375zm3.96217 0h1.18126c.21664 0 .39375.17711.39375.39375v1.18126c0 .21664-.17711.39375-.39375.39375h-1.18126c-.21664 0-.39375-.17711-.39375-.39375v-1.18126c0-.21664.17711-.39375.39375-.39375zm3.96217 0h1.18126c.21664 0 .39375.17711.39375.39375v1.18126c0 .21664-.17711.39375-.39375.39375h-1.18126c-.21664 0-.39375-.17711-.39375-.39375v-1.18126c0-.21664.17711-.39375.39375-.39375z"/><path id="_147892672" d="m3.28643 3.91992h14.4271c1.08429 0 1.96868.88439 1.96868 1.96868v.68775c-.03527-.00256-.071-.00395-.10727-.00395h-5.56206-2.31415-2.64186-2.9202-4.81897v-.6838c0-1.08429.88439-1.96868 1.96868-1.96868h.00002z"/><path id="_206482528" d="m4.9853 6.50683v-4.19997c0-.54211.4422-.9843.9843-.9843.54211 0 .9843.44297.9843.9843v4.19997h-.81719z"/><path id="_206505040" d="m14.0461 6.50683v-4.19997c0-.54211.4422-.9843.9843-.9843.54211 0 .9843.44297.9843.9843v4.19997z"/></g></g></svg>