<svg id="Layer_1" enable-background="new 0 0 96 96" viewBox="0 0 96 96" xmlns="http://www.w3.org/2000/svg"><g><g><path d="m85.135 13.021v74.58h-71v-9.84c.48.07.98.1 1.48.1l30.52.35 27.9.32c.42 0 .82-.12 1.21-.32 1.02-.49 1.93-1.49 2.65-2.2.98-1 1.6-.06 1.6-1.56v-55.79c0-.92.22-1.79.61-2.55.9299-1.84 2.83-3.09 5.03-3.09z" fill="#b7b6b6"/><path d="m82.315 74.451v2.2c0 1.7-.77 3.22-1.98 4.23-.96.8-2.2 1.29-3.54 1.29h-62.66v-3.96l66.2-3.65z" fill="#abaaaa"/><path d="m85.135 13.021v.76c-.95.54-1.72 1.35-2.21 2.33-.39.76-.61 1.63-.61 2.55v55.79c0 1.5-.62 2.86-1.6 3.86-1 .98-2.36 1.6-3.86 1.6h-2.82c1.5 0 2.86-.62 3.86-1.6.98-1 1.6-2.36 1.6-3.86v-55.79c0-.92.22-1.79.61-2.55.9299-1.84 2.83-3.09 5.03-3.09z" fill="#abaaaa"/><path d="m85.135 13.021v.07c-1.84.26-3.38 1.42-4.19 3.02-.39.76-.61 1.63-.61 2.55v55.79c0 1.5-.62 2.86-1.6 3.86-1 .98-2.36 1.6-3.86 1.6h-.84c1.5 0 2.86-.62 3.86-1.6.98-1 1.6-2.36 1.6-3.86v-55.79c0-.92.22-1.79.61-2.55.9299-1.84 2.83-3.09 5.03-3.09z" fill="#9a9999"/><path d="m90.765 18.661v64.21h-5.63v-69.85c.29 0 .58.02.86.07.3.04.58.11.86.2.86.28 1.63.75 2.26 1.38.71.71 1.23 1.6 1.48 2.6.11.44.17.91.17 1.39z" fill="#a6a6a6"/><path d="m87.955 13.791v69.08h-2.82v-69.85c.29 0 .58.02.86.07.3.04.58.11.86.2.39.13.7499.29 1.1.5z" fill="#989898"/><path d="m85.9149 13.081v69.79h-.78v-69.85c.2601 0 .53.02.78.06z" fill="#8c8c8c"/><path d="m80.335 74.561c0 3.4904-2.8295 6.3199-6.3199 6.3199h-59.8801v-2.67z" fill="#9a9999"/><path d="m79.495 24.821v49.63c0 1.5-.62 2.86-1.6 3.86-1 .98-2.36 1.6-3.86 1.6-3.0099 0-5.46-2.45-5.46-5.46v-6.57h-54.44v-43.06z" fill="#f5f2f2"/><path d="m14.135 24.821h65.36v.889h-65.36z" fill="#e4e2e2"/><path d="m85.135 12.9407c-1.79 0-3.38.83-4.4 2.12-.78.96-1.24 2.19-1.24 3.52v6.2403h-65.36v-11.8803z" fill="#de3131"/><g><g><path d="m71.034 18.0709c0 .41-.33.75-.75.75-3.2 0-5.81-2.61-5.81-5.82h1.5c0 2.38 1.93 4.32 4.31 4.32.4199 0 .75.33.75.75z" fill="#c62b2b"/></g><g><path d="m57.3039 18.0709c0 .41-.33.75-.75.75-3.21 0-5.8199-2.61-5.8199-5.82h1.5c0 2.38 1.94 4.32 4.3199 4.32.4201 0 .75.33.75.75z" fill="#c62b2b"/></g><g><path d="m43.5739 18.0709c0 .41-.34.75-.75.75-3.21 0-5.81-2.61-5.81-5.82h1.5c0 2.38 1.94 4.32 4.31 4.32.4101 0 .75.33.75.75z" fill="#c62b2b"/></g><g><path d="m29.844 18.0709c0 .41-.33.75-.75.75-3.21 0-5.81-2.61-5.81-5.82h1.5c0 2.38 1.93 4.32 4.31 4.32.4199 0 .75.33.75.75z" fill="#c62b2b"/></g></g><path d="m85.135 13.021c-1.79 0-3.38.83-4.4 2.12h-66.6v-2.12z" fill="#ce2d2d"/><path d="m85.135 13.021c-1.16 0-2.24.35-3.13.95h-67.87v-.95z" fill="#c62b2b"/><path d="m74.505 24.821v49.63c0 1.9776-.9385 3.084-2 3.084-.8801 0-1.9461-1.1206-1.9575-2.0844v-8.9196h-7.1525l.944 13.38h9.6959c1.5 0 2.86-.62 3.86-1.6.98-1 1.6-2.36 1.6-3.86v-49.63z" fill="#e4e2e2"/><path d="m70.545 70.561v1.76h-1.97v-4.44h-54.44v-1.35h52.38c2.2257 0 4.03 1.8043 4.03 4.03z" fill="#e4e2e2"/><path d="m85.135 13.021c-3.12 0-5.64 2.52-5.64 5.64v6.16h-4.99v-6.16c0-3.12 2.52-5.64 5.64-5.64z" fill="#ce2d2d"/><path d="m85.135 13.021c-3.12 0-5.64 2.52-5.64 5.64v6.16h-1.79v-6.16c0-3.12 2.52-5.64 5.64-5.64z" fill="#c62b2b"/><path d="m79.4949 24.821v49.63c0 1.5-.62 2.8601-1.6 3.8601-1 .98-2.36 1.6-3.86 1.6h-1.79c1.5 0 2.86-.62 3.86-1.6.98-1 1.6-2.3601 1.6-3.8601v-49.63z" fill="#c9c8c8"/><path d="m74.0349 79.911h-58.42c-.5 0-1-.03-1.48-.1-5.86-.72-10.4-5.72-10.4-11.78v-.15h64.84v6.57c0 2.38 1.53 4.41 3.66 5.15.5601.2 1.1701.31 1.8.31z" fill="#a6a6a6"/><g><path d="m20.6456 45.2844c-.4141 0-.75-.3359-.75-.75v-12.7529c0-.4141.3359-.75.75-.75s.75.3359.75.75v12.7529c0 .4141-.3359.75-.75.75z" fill="#d3d1d1"/></g><g><path d="m20.6456 57.4485c-.4141 0-.75-.3359-.75-.75v-8.8018c0-.4141.3359-.75.75-.75s.75.3359.75.75v8.8018c0 .4141-.3359.75-.75.75z" fill="#d3d1d1"/></g><g><path d="m24.0875 74.6438h-9.9546c-.4141 0-.75-.3359-.75-.75s.3359-.75.75-.75h9.9546c.4141 0 .75.3359.75.75s-.3359.75-.75.75z" fill="#8e8d8d"/></g><g><path d="m53.5309 74.6438h-15.7261c-.4141 0-.75-.3359-.75-.75s.3359-.75.75-.75h15.7261c.4141 0 .75.3359.75.75s-.336.75-.75.75z" fill="#8e8d8d"/></g><path d="m85.135 61.8328v-31.516c-1.2072 0-2.1857.9786-2.1857 2.1857v27.1445c-.0001 1.2072.9785 2.1858 2.1857 2.1858z" fill="#cfcece"/><path d="m90.765 64.1739v-30.7704c-1.0028 0-1.8157.8129-1.8157 1.8157v27.1389c-.0001 1.0028.8129 1.8158 1.8157 1.8158z" fill="#b9b9b9"/><path d="m54.135 87.601h-23.57c.48-1.83 2.15-3.18 4.13-3.18h15.3c1.18 0 2.26.48 3.03 1.26.53.52.92 1.18 1.11 1.92z" fill="#d3d2d2"/><path d="m68.535 87.601h-23.57c.48-1.83 2.15-3.18 4.14-3.18h15.3c1.18 0 2.25.48 3.03 1.26.52.52.9099 1.18 1.1 1.92z" fill="#c4c3c3"/><path d="m23.8171 70.2274h-9.8785c-1.2959 0-2.3464-1.0505-2.3464-2.3465h14.5714c-.0001 1.296-1.0506 2.3465-2.3465 2.3465z" fill="#c3c3c3"/><path d="m31.1028 70.2274h-9.8785c-1.2959 0-2.3465-1.0505-2.3465-2.3465h14.5714c0 1.296-1.0505 2.3465-2.3464 2.3465z" fill="#b5b5b5"/><g fill="#f53535"><path d="m14.135 23.9162v-7.8703c.9773 0 1.7696.7923 1.7696 1.7696v4.3311c0 .9773-.7923 1.7696-1.7696 1.7696z"/><path d="m45.5281 23.4596h-12.0241c-.7107 0-1.2869-.5762-1.2869-1.2869 0-.7107.5762-1.2869 1.2869-1.2869h12.0241c.7107 0 1.2869.5762 1.2869 1.2869 0 .7107-.5762 1.2869-1.2869 1.2869z"/><path d="m66.437 22.1727h-12.0241c-.7107 0-1.2869-.5762-1.2869-1.2869 0-.7107.5762-1.2869 1.2869-1.2869h12.0241c.7107 0 1.2869.5762 1.2869 1.2869 0 .7108-.5762 1.2869-1.2869 1.2869z"/></g><path d="m51.915 79.911h-16.28c.41-1.27 1.61-2.19 3.01-2.19h10.26c.87 0 1.67.35 2.24.92.35.36.62.78.77 1.27z" fill="#c3c3c3"/><path d="m69.3263 52.5451h-.0837c-.9431 0-1.7077-.7645-1.7077-1.7077v-8.8494c0-.9431.7645-1.7077 1.7077-1.7077h.0837c.9431 0 1.7076.7645 1.7076 1.7077v8.8494c.0001.9431-.7645 1.7077-1.7076 1.7077z" fill="#fffdfd"/><path d="m28.8386 35.3921h-.0493c-.5553 0-1.0054-.4501-1.0054-1.0054v-5.2101c0-.5553.4501-1.0054 1.0054-1.0054h.0493c.5553 0 1.0054.4501 1.0054 1.0054v5.2101c0 .5553-.4502 1.0054-1.0054 1.0054z" fill="#fffdfd"/><path d="m32.2417 64.401h-.0493c-.5553 0-1.0054-.4501-1.0054-1.0054v-5.2101c0-.5553.4501-1.0054 1.0054-1.0054h.0493c.5553 0 1.0054.4501 1.0054 1.0054v5.2101c0 .5553-.4501 1.0054-1.0054 1.0054z" fill="#fffdfd"/><path d="m68.575 74.561v-6.68c-1.5291 0-2.7686 1.2395-2.7686 2.7686v1.1429c0 1.529 1.2395 2.7685 2.7686 2.7685z" fill="#b5b5b5"/></g><path d="m14.135 24.821h1.77v43.06h-1.77z" fill="#f9f6f6"/></g><path d="m62.7116 40.3713c.2384-.5068.3819-1.0666.3819-1.6638 0-2.1693-1.7586-3.928-3.9279-3.928-.6026 0-1.1669.1466-1.6772.3891-1.7182-2.9933-4.9391-5.0141-8.638-5.0141-5.5013 0-9.961 4.4597-9.961 9.961h-2.3058c-3.1282 0-5.6641 2.5359-5.6641 5.6641s2.5359 5.6641 5.6641 5.6641h24.5337c3.1282 0 5.6641-2.5359 5.6641-5.6641 0-2.5704-1.7234-4.7162-4.0698-5.4083z" fill="#4ac3ed"/><path d="m66.01 42.94c-1.19-.75-2.6-1.33-3.58-1.61l-1.12-.33.5-1.05c.19-.41.28-.83.28-1.2401 0-1.62-1.31-2.93-2.92-2.93-.42 0-.84.1-1.25.29l-.84.4-.46-.8c-1.6-2.79-4.57-4.52-7.77-4.52-4.94 0-8.96 4.02-8.96 8.97v1h-3.31c-1.3 0-3.14.54-4.62 1.4 1.02-1.45 2.71-2.4 4.62-2.4h2.31c0-5.51 4.46-9.97 9.96-9.97 3.7 0 6.92 2.03 8.64 5.02.51-.24 1.07-.39 1.6801-.39 2.16 0 3.92 1.76 3.92 3.93 0 .59-.14 1.15-.38 1.66 1.3999.4101 2.5799 1.3401 3.2999 2.5701z" fill="#4ecdf9"/><g><g><path d="m42.2305 39.1299c-.0703 0-.1416-.0098-.2124-.0303-.3975-.1172-.6245-.5342-.5073-.9316.7358-2.498 2.6636-4.4297 5.1562-5.167.395-.1172.8149.1084.9321.5059.1177.3975-.1094.8145-.5063.9316-2.0029.5938-3.5518 2.1455-4.1436 4.1533-.0962.3262-.395.5381-.7187.5381z" fill="#45b7de"/></g></g><g><g fill="#4ac3ed"><path d="m60.2208 57.6038c0 1.0867-.8809 1.9676-1.9676 1.9676s-1.9676-.8809-1.9676-1.9676 1.9676-3.5106 1.9676-3.5106 1.9676 2.4239 1.9676 3.5106z"/><path d="m50.8181 57.6038c0 1.0867-.8809 1.9676-1.9676 1.9676s-1.9676-.8809-1.9676-1.9676 1.9676-3.5106 1.9676-3.5106 1.9676 2.4239 1.9676 3.5106z"/><path d="m41.4153 57.6038c0 1.0867-.8809 1.9676-1.9676 1.9676s-1.9677-.8809-1.9677-1.9676 1.9676-3.5106 1.9676-3.5106 1.9677 2.4239 1.9677 3.5106z"/></g></g><g fill="#45b7de"><path d="m60.22 57.6c0 .84-.52 1.55-1.25 1.84.25-.33.4-.74.4-1.19 0-.88-1.29-2.63-1.78-3.27.36-.52.66-.89.66-.89s1.97 2.43 1.97 3.51z"/><path d="m50.82 57.6c0 .84-.52 1.55-1.25 1.84.25-.33.4-.74.4-1.19 0-.88-1.29-2.63-1.78-3.27.36-.52.66-.89.66-.89s1.97 2.43 1.97 3.51z"/><path d="m41.42 57.6c0 .84-.52 1.55-1.26 1.84.25-.33.4-.74.4-1.19 0-.88-1.28-2.63-1.77-3.27.36-.52.66-.89.66-.89s1.97 2.43 1.97 3.51z"/></g><path d="m40.2625 49.2817h-2.9449c-1.0729 0-1.9427-.8698-1.9427-1.9427v-.6429c0-1.0729.8698-1.9427 1.9427-1.9427h2.9449c1.0729 0 1.9427.8698 1.9427 1.9427v.6429c0 1.0729-.8698 1.9427-1.9427 1.9427z" fill="#4fd0fd"/><circle cx="59.42" cy="38.464" fill="#4ac3ed" r="3.664"/><path d="m59.83 42.11c-.13.01-.27.02-.41.02-2.02 0-3.66-1.64-3.66-3.67 0-2.02 1.64-3.66 3.66-3.66.14 0 .28.01.42.03-1.94.19-3.4 1.89-3.27 3.86.11 1.81 1.52 3.23 3.26 3.42z" fill="#47bce4"/><path d="m85.3983 12.4867h-9.8979c-.3716-2.8503-2.8098-5.0605-5.7598-5.0605-2.9504 0-5.3887 2.2102-5.7603 5.0605h-2.2128c-.3716-2.8503-2.8099-5.0605-5.7603-5.0605-2.95 0-5.3882 2.2102-5.7598 5.0606h-2.2133c-.3716-2.8503-2.8098-5.0605-5.7598-5.0605-2.9504 0-5.3887 2.2102-5.7603 5.0605h-2.2133c-.3716-2.8503-2.8098-5.0605-5.7598-5.0605s-5.3882 2.2102-5.7598 5.0606h-8.3832c-.4141 0-.75.3359-.75.75l.0002 54.1131h-9.6479c-.4141 0-.75.3359-.75.75v.146c0 6.1435 4.433 11.3614 10.398 12.414v7.1636c0 .4141.3359.75.75.75l71.0004-.0001c.4141 0 .75-.3359.75-.75v-3.9858h4.8828c.4141 0 .75-.3359.75-.75l-.0001-64.2089c0-1.7085-.6631-3.312-1.8667-4.5156-1.2101-1.21-2.8141-1.8765-4.5163-1.8765zm-15.6577-3.5605c2.1207 0 3.8794 1.5412 4.2382 3.5605h-8.4769c.3589-2.0193 2.1175-3.5605 4.2387-3.5605zm-13.7333 0c2.1212 0 3.8799 1.5413 4.2387 3.5605h-8.4769c.3588-2.0192 2.1174-3.5605 4.2382-3.5605zm-13.7329 0c2.1207 0 3.8794 1.5412 4.2382 3.5605h-8.4769c.3588-2.0192 2.1175-3.5605 4.2387-3.5605zm-13.7334.0001c2.1207 0 3.8794 1.5413 4.2382 3.5605h-8.4764c.3588-2.0193 2.1175-3.5605 4.2382-3.5605zm-5.761 5.0605c.3681 2.8546 2.8083 5.0688 5.761 5.0688.4141 0 .75-.3359.75-.75s-.3359-.75-.75-.75c-2.1235 0-3.8834-1.5453-4.239-3.5688h9.2841c.0068.0002.0125.0039.0193.0039s.0125-.0037.0193-.0039h2.8881c.3681 2.8546 2.8084 5.0688 5.7615 5.0688.4141 0 .75-.3359.75-.75s-.3359-.75-.75-.75c-2.1239 0-3.8838-1.5453-4.2395-3.5688h9.2846c.0068.0002.0125.0039.0193.0039s.0125-.0037.0193-.0039h2.8881c.3681 2.8546 2.8083 5.0688 5.761 5.0688.4141 0 .75-.3359.75-.75s-.3359-.75-.75-.75c-2.1235 0-3.8834-1.5453-4.239-3.5688h9.2846c.0068.0002.0125.0039.0193.0039s.0125-.0037.0193-.0039h2.8876c.3681 2.8546 2.8084 5.0688 5.7615 5.0688.4141 0 .75-.3359.75-.75s-.3359-.75-.75-.75c-2.1239 0-3.8839-1.5453-4.2395-3.5688h9.2846c.0068.0002.0125.0039.0193.0039s.0125-.0037.0193-.0039h6.464c-.0471.0396-.0887.0851-.1346.126-1.1789 1.0347-1.9328 2.5189-2.1086 4.075-.0245.2272-.039.4575-.039.6911v5.4087h-63.8579v-10.3008zm-7.632 11.8008 63.8583-.0001.0001 48.8803c0 1.249-.4907 2.4321-1.3755 3.3262-.9004.8906-2.0835 1.3813-3.3315 1.3814-2.5957 0-4.707-2.1118-4.707-4.7075v-6.5679c0-.4141-.3359-.75-.75-.75h-53.6943zm-10.3818 43.0624 63.3261-.0001v5.8179c.0004 1.598.644 3.1715 1.756 4.3168.0852.0878.175.1707.2652.2534.0489.0448.0935.0941.1438.1373l-54.3783.0001c-.4863 0-.9497-.0303-1.3892-.0918-5.352-.6592-9.4355-5.0918-9.7236-10.4336zm85.5151 13.4876h-4.1328l-.0001-47.4843c0-.4141-.3359-.75-.75-.75s-.75.3359-.75.75l.0001 52.2201-69.5004.0001v-6.2466c.2452.0149.4745.0484.731.0484l58.4203-.0001c1.646 0 3.2036-.6445 4.3916-1.8203 1.1709-1.1821 1.8154-2.7402 1.8154-4.3872l-.0001-55.789c0-.3372.0343-.6664.0995-.9846.457-2.227 2.4324-3.9075 4.7925-3.9075 1.3018 0 2.5288.5102 3.4556 1.437.9204.9204 1.4273 2.1475 1.4273 3.4551z"/><path d="m25.1025 74.1123c0-.4141-.3359-.75-.75-.75h-9.9546c-.4141 0-.75.3359-.75.75s.3359.75.75.75h9.9546c.4141 0 .75-.3359.75-.75z"/><path d="m38.0698 74.8623h15.7261c.4141 0 .75-.3359.75-.75s-.3359-.75-.75-.75h-15.7261c-.4141 0-.75.3359-.75.75s.336.75.75.75z"/><path d="m85.3984 18.6514c-.4141 0-.75.3359-.75.75v8.9785c0 .4141.3359.75.75.75s.75-.3359.75-.75v-8.9785c0-.4141-.3359-.75-.75-.75z"/><path d="m20.9106 31.251c-.4141 0-.75.3359-.75.75v12.752c0 .4141.3359.75.75.75s.75-.3359.75-.75v-12.752c0-.4141-.3359-.75-.75-.75z"/><path d="m20.9106 47.3652c-.4141 0-.75.3359-.75.75v8.8018c0 .4141.3359.75.75.75s.75-.3359.75-.75v-8.8018c0-.414-.3359-.75-.75-.75z"/><path d="m63.6763 39.9238c.1108-.3984.167-.8057.167-1.2158 0-2.5801-2.0986-4.6787-4.6777-4.6787-.4624 0-.9199.0713-1.3672.2129-1.9731-3-5.3442-4.8379-8.9478-4.8379-5.6543 0-10.2993 4.4033-10.6855 9.9609h-1.5815c-3.5366 0-6.4141 2.8779-6.4141 6.415s2.8774 6.4141 6.4141 6.4141h24.5337c3.5366 0 6.4141-2.877 6.4141-6.4141-.0002-2.5839-1.5202-4.8486-3.8551-5.8564zm-2.5591 10.7705h-24.5337c-2.7095 0-4.9141-2.2041-4.9141-4.9141s2.2046-4.915 4.9141-4.915h2.3057c.4141 0 .75-.3359.75-.75 0-5.0791 4.1323-9.2109 9.2114-9.2109 3.2842 0 6.3447 1.7773 7.9873 4.6377.1948.3408.6191.4727.9731.3037.4409-.21.8965-.3164 1.3545-.3164 1.7524 0 3.1777 1.4258 3.1777 3.1787 0 .4541-.1045.9062-.3105 1.3438-.0933.1973-.0952.4268-.0054.626.0894.2002.2617.3506.4717.4131 2.1128.623 3.5322 2.5078 3.5322 4.6895 0 2.7098-2.2045 4.9139-4.914 4.9139z"/><path d="m46.667 33.001c-2.4927.7373-4.4204 2.6689-5.1562 5.167-.1172.3975.1099.8145.5073.9316.0708.0205.1421.0303.2124.0303.3237 0 .6226-.2119.7188-.5381.5918-2.0078 2.1406-3.5596 4.1436-4.1533.397-.1172.624-.5342.5063-.9316-.1173-.3975-.5372-.6231-.9322-.5059z"/><path d="m58.2534 53.3428c-.2261 0-.4399.1016-.5825.2773-.501.6172-2.1353 2.7285-2.1353 3.9834 0 1.499 1.2192 2.7178 2.7178 2.7178s2.7173-1.2188 2.7173-2.7178c0-1.2549-1.6343-3.3662-2.1348-3.9834-.1425-.1758-.3564-.2773-.5825-.2773zm0 5.4785c-.6714 0-1.2178-.5459-1.2178-1.2178 0-.3799.5605-1.3535 1.2178-2.2725.6572.9189 1.2173 1.8926 1.2173 2.2725 0 .6719-.5459 1.2178-1.2173 1.2178z"/><path d="m48.8506 53.3428c-.2261 0-.4399.1016-.5825.2773-.501.6172-2.1353 2.7285-2.1353 3.9834 0 1.499 1.2192 2.7178 2.7178 2.7178s2.7173-1.2188 2.7173-2.7178c0-1.2549-1.6343-3.3662-2.1348-3.9834-.1426-.1758-.3564-.2773-.5825-.2773zm0 5.4785c-.6714 0-1.2178-.5459-1.2178-1.2178 0-.3799.5605-1.3535 1.2178-2.2725.6572.9189 1.2173 1.8926 1.2173 2.2725 0 .6719-.5459 1.2178-1.2173 1.2178z"/><path d="m39.4478 53.3428c-.2261 0-.4399.1016-.5825.2773-.501.6172-2.1353 2.7285-2.1353 3.9834 0 1.499 1.2192 2.7178 2.7178 2.7178s2.7173-1.2188 2.7173-2.7178c0-1.2549-1.6343-3.3662-2.1348-3.9834-.1426-.1758-.3565-.2773-.5825-.2773zm0 5.4785c-.6714 0-1.2178-.5459-1.2178-1.2178 0-.3799.5605-1.3535 1.2178-2.2725.6572.9189 1.2173 1.8926 1.2173 2.2725-.0001.6719-.546 1.2178-1.2173 1.2178z"/></svg>