<svg id="Capa_1" enable-background="new 0 0 512 512" height="512" viewBox="0 0 512 512" width="512" xmlns="http://www.w3.org/2000/svg"><g><circle cx="256" cy="256" fill="#ff8496" r="256"/><g><path d="m110.498 175.233 88.892 88.892-77.527 98.55 148.892 148.892c126.53-7.192 228.457-106.266 240.115-231.551l-149.624-149.625z" fill="#ff3f5c"/><g><path d="m235.872 362.675h-114.009v-215.635h114.009l42.091 107.817z" fill="#ffd07b"/><path d="m235.872 147.04h114.009v215.636h-114.009z" fill="#f6b95e"/><g><path d="m235.872 227.644h-24.295v-58.572h24.295l8.969 29.286z" fill="#b25f49"/><path d="m235.872 169.072h24.295v58.572h-24.295z" fill="#8c4a37"/></g><path d="m211.577 175.233h-101.079v-44.842h101.079l33.264 22.421z" fill="#ffe797"/><path d="m361.246 175.233h-101.079l-24.295-10.429v-23.455l24.295-10.958h101.079z" fill="#ffd07b"/><g><path d="m235.872 175.233h-24.295v-44.842h24.295l8.969 22.421z" fill="#ce8372"/><path d="m235.872 130.391h24.295v44.842h-24.295z" fill="#b25f49"/></g></g><g><g><path d="m388.845 301.987-38.965 77.93c-43.039 0-77.93-34.89-77.93-77.93s34.89-77.93 77.93-77.93z" fill="#00ed83"/><path d="m427.81 301.987c0 43.039-34.89 77.93-77.93 77.93v-155.86c43.04 0 77.93 34.891 77.93 77.93z" fill="#00cb71"/><g><path d="m349.883 301.208-9.979 14.103-23.323-27.927-17.926 14.972 42.782 51.225 8.446-11.936 11.165-32.164z" fill="#fff"/><path d="m349.883 341.645 51.994-73.479-19.066-13.491-32.928 46.533z" fill="#eeeef0"/></g></g></g></g></g></svg>