<svg height="512pt" viewBox="0 0 512 512" width="512pt" xmlns="http://www.w3.org/2000/svg"><path d="m512 256c0 141.386719-114.613281 256-256 256s-256-114.613281-256-256 114.613281-256 256-256 256 114.613281 256 256zm0 0" fill="#ff3d62"/><path d="m512 256c0-15.234375-1.339844-30.152344-3.890625-44.65625l-138.601563-138.988281c-6.265624-7.535157-15.695312-12.355469-26.199218-12.355469h-174.617188c-18.75 0-34.085937 15.339844-34.085937 34.085938v323.828124c0 11.390626 5.667969 21.511719 14.3125 27.710938l62.5 62.496094c14.476562 2.542968 29.375 3.878906 44.582031 3.878906 141.386719 0 256-114.613281 256-256zm0 0" fill="#c2001b"/><path d="m343.308594 452h-174.617188c-18.75 0-34.085937-15.339844-34.085937-34.085938v-323.828124c0-18.746094 15.335937-34.085938 34.085937-34.085938h174.617188c18.75 0 34.085937 15.339844 34.085937 34.085938v323.828124c0 18.746094-15.339843 34.085938-34.085937 34.085938zm0 0" fill="#fff"/><path d="m377.390625 94.089844v323.820312c0 18.75-15.332031 34.089844-34.082031 34.089844h-87.308594v-392h87.308594c18.75 0 34.082031 15.339844 34.082031 34.089844zm0 0" fill="#fff5cb"/><path d="m150.394531 106.648438h211.207031v276.136718h-211.207031zm0 0" fill="#00ceb4"/><path d="m256 106.648438h105.601562v276.140624h-105.601562zm0 0" fill="#00ad95"/><path d="m275.394531 435.765625h-38.789062c-6.601563 0-12-5.398437-12-12v-10.960937c0-6.601563 5.398437-12 12-12h38.789062c6.601563 0 12 5.398437 12 12v10.960937c0 6.601563-5.398437 12-12 12zm0 0" fill="#00ceb4"/><path d="m287.398438 412.800781v10.96875c0 6.601563-5.398438 12-12 12h-19.398438v-34.96875h19.398438c6.601562 0 12 5.398438 12 12zm0 0" fill="#00ad95"/><path d="m192.253906 85.613281c0 7.058594-5.722656 12.78125-12.78125 12.78125s-12.78125-5.722656-12.78125-12.78125c0-7.058593 5.722656-12.78125 12.78125-12.78125s12.78125 5.722657 12.78125 12.78125zm0 0" fill="#00ceb4"/><path d="m187.253906 85.613281c0 4.296875-3.484375 7.78125-7.78125 7.78125s-7.78125-3.484375-7.78125-7.78125 3.484375-7.78125 7.78125-7.78125 7.78125 3.484375 7.78125 7.78125zm0 0" fill="#00ad95"/><path d="m361.605469 138.144531c-56.015625 0-101.425781 40.429688-101.425781 90.296875 0 24.804688 11.234374 47.273438 29.421874 63.59375l-12.871093 21.042969s22.828125 4.699219 40.648437-3.351563c13.367188 5.773438 28.371094 9.015626 44.226563 9.015626 56.015625 0 101.425781-40.429688 101.425781-90.300782-.003906-49.867187-45.410156-90.296875-101.425781-90.296875zm0 0" fill="#ab3ccc"/><path d="m463.027344 228.441406c0 49.875-45.40625 90.300782-101.421875 90.300782v-180.597657c56.015625 0 101.421875 40.429688 101.421875 90.296875zm0 0" fill="#5c1b6f"/><path d="m419.582031 209.898438c-2.566406-12.648438-12.894531-23.011719-21.996093-25.394532-22.835938-5.976562-35.980469 17.277344-35.980469 17.277344s-13.148438-23.253906-35.984375-17.277344c-9.101563 2.382813-19.429688 12.746094-21.996094 25.394532-4.789062 23.585937 10.011719 56.863281 57.980469 73.46875 47.964843-16.609376 62.765625-49.886719 57.976562-73.46875zm0 0" fill="#ffa7b8"/><path d="m419.582031 209.898438c-2.566406-12.648438-12.894531-23.011719-21.996093-25.394532-22.835938-5.976562-35.980469 17.277344-35.980469 17.277344v81.585938c47.964843-16.609376 62.765625-49.886719 57.976562-73.46875zm0 0" fill="#ff738e"/></svg>